<svg width="255" height="255" viewBox="0 0 255 255" fill="none" xmlns="http://www.w3.org/2000/svg">
<g clip-path="url(#clip0_2_2)">
<rect width="255" height="255" rx="25" fill="white" fill-opacity="0.1"/>
<mask id="path-2-outside-1_2_2" maskUnits="userSpaceOnUse" x="45" y="38" width="55" height="96" fill="black">
<rect fill="white" x="45" y="38" width="55" height="96"/>
<path d="M46.104 133V39.56H54.552V125.32H98.712V133H46.104Z"/>
</mask>
<path d="M46.104 133H45.104V134H46.104V133ZM46.104 39.56V38.56H45.104V39.56H46.104ZM54.552 39.56H55.552V38.56H54.552V39.56ZM54.552 125.32H53.552V126.32H54.552V125.32ZM98.712 125.32H99.712V124.32H98.712V125.32ZM98.712 133V134H99.712V133H98.712ZM46.104 133H47.104V39.56H46.104H45.104V133H46.104ZM46.104 39.56V40.56H54.552V39.56V38.56H46.104V39.56ZM54.552 39.56H53.552V125.32H54.552H55.552V39.56H54.552ZM54.552 125.32V126.32H98.712V125.32V124.32H54.552V125.32ZM98.712 125.32H97.712V133H98.712H99.712V125.32H98.712ZM98.712 133V132H46.104V133V134H98.712V133Z" fill="white" mask="url(#path-2-outside-1_2_2)"/>
<path d="M117.6 215V209.24C119.392 209.24 121.952 209.048 125.28 208.664C128.608 208.28 131.68 207.448 134.496 206.168V87.704C131.68 86.808 128.672 86.36 125.472 86.36C122.4 86.36 119.968 86.424 118.176 86.552L117.6 80.792C126.048 79.768 134.496 78.808 142.944 77.912C151.392 77.016 159.648 76.568 167.712 76.568C175.52 76.568 182.56 77.848 188.832 80.408C195.232 82.84 200.672 86.168 205.152 90.392C209.76 94.616 213.28 99.352 215.712 104.6C218.144 109.848 219.36 115.224 219.36 120.728C219.36 128.152 217.12 135.256 212.64 142.04C208.288 148.696 201.952 154.072 193.632 158.168C185.312 162.136 175.136 163.928 163.104 163.544L162.144 157.4C175.712 156.504 185.632 152.984 191.904 146.84C198.304 140.696 201.504 133.336 201.504 124.76C201.504 118.232 200.096 112.408 197.28 107.288C194.464 102.04 190.688 97.752 185.952 94.424C181.216 90.968 175.84 88.6 169.824 87.32C163.808 85.912 157.6 85.72 151.2 86.744V206.168C154.4 207.448 157.792 208.28 161.376 208.664C164.96 209.048 167.776 209.24 169.824 209.24V215H117.6Z" fill="white"/>
</g>
<defs>
<clipPath id="clip0_2_2">
<rect width="255" height="255" rx="25" fill="white"/>
</clipPath>
</defs>
</svg>
